<svg id="visual" viewBox="0 0 900 600" width="900" height="600" xmlns="http://www.w3.org/2000/svg" xmlns:xlink="http://www.w3.org/1999/xlink" version="1.1"><rect width="900" height="600" fill="#931F1F"></rect><g><g transform="translate(370 398)"><path d="M86.6 -29C99.1 10.6 87.3 57.2 55.9 81C24.5 104.8 -26.5 105.7 -58.5 82.1C-90.5 58.4 -103.5 10.3 -90.6 -29.8C-77.7 -69.8 -38.9 -101.7 -0.9 -101.4C37 -101.1 74 -68.6 86.6 -29Z" stroke="#F7760E" fill="none" stroke-width="20"></path></g><g transform="translate(873 478)"><path d="M93.2 -31.2C103.5 1.6 82.8 43.5 51.5 64.8C20.2 86 -21.6 86.7 -51.3 66.2C-81 45.7 -98.5 4 -87.9 -29.1C-77.4 -62.2 -38.7 -86.7 1.4 -87.1C41.4 -87.6 82.8 -64 93.2 -31.2Z" stroke="#F7760E" fill="none" stroke-width="20"></path></g><g transform="translate(206 107)"><path d="M65.9 -19.8C74.7 5.8 63.9 39.4 41 55.9C18.1 72.4 -16.9 71.9 -40 55.1C-63.1 38.3 -74.3 5.3 -65.7 -20.1C-57 -45.4 -28.5 -63 0 -63C28.5 -63 57.1 -45.4 65.9 -19.8Z" stroke="#F7760E" fill="none" stroke-width="20"></path></g></g></svg>